<mxfile host="app.diagrams.net" modified="2024-01-15T15:15:29.918Z" agent="Mozilla/5.0 (Windows NT 10.0; Win64; x64) AppleWebKit/537.36 (KHTML, like Gecko) Chrome/118.0.0.0 YaBrowser/23.11.0.0 Safari/537.36" version="22.1.18" etag="Ni8M-vcCR8yQrEmSUmgY" type="github">
  <diagram name="Страница — 1" id="u9b4fEAAorLoQ8IN5Xjf">
    <mxGraphModel>
      <root>
        <mxCell id="0" />
        <mxCell id="1" parent="0" />
      </root>
    </mxGraphModel>
  </diagram>
</mxfile>
